<svg xmlns="http://www.w3.org/2000/svg" xmlns:xlink="http://www.w3.org/1999/xlink" id="Layer_1" width="611.834" height="706.506" x="0" y="0" enable-background="new .083 42.123 611.834 706.506" version="1.1" viewBox="0.083 42.123 611.834 706.506" xml:space="preserve"><polygon id="fill" fill="#00843D" points="611.917 572.053 305.999 748.657 .083 572.05 .083 218.756 305.999 42.151 611.917 218.756"/><linearGradient id="gradient_1_" x1="305.671" x2="305.671" y1="404.726" y2="134.417" gradientTransform="matrix(1 0 0 1 0 -80)" gradientUnits="userSpaceOnUse"><stop offset="0" style="stop-color:#fff;stop-opacity:0"/><stop offset="1" style="stop-color:#fff"/></linearGradient><path id="gradient" fill="url(#gradient_1_)" d="M305.591,54.417L59.22,197.048	c36.979,74.535,133.292,127.677,246.28,127.677c113.336,0,209.895-53.47,246.621-128.366L305.591,54.417z" opacity=".2"/><path id="outline" fill="#FFCD00" d="M587.52,204.656L356.209,71.099L306,42.123l-50.209,28.976L24.48,204.656L0.083,218.728	v353.293l24.396,14.071l234.142,135.225L306,748.629l47.378-27.312L587.52,586.095l24.397-14.07V218.728L587.52,204.656z M587.52,558.783L306,721.317L24.48,558.783v-325.15L306,71.099l0,0l281.52,162.534V558.783z"/><g><path fill="#FFCD00" d="M135.047,595.104c-8.579,0-15.311-6.335-15.311-16.433c0-10.69,7.062-16.96,15.838-16.96 c9.173,0,15.377,6.665,15.377,16.366c0,11.879-8.25,17.026-15.839,17.026H135.047z M135.246,590.749 c5.543,0,9.701-5.213,9.701-12.473c0-5.411-2.706-12.209-9.569-12.209c-6.797,0-9.767,6.335-9.767,12.407 c0,6.995,3.959,12.274,9.569,12.274H135.246z"/><path fill="#FFCD00" d="M153.793,591.014l14.453-18.809c1.452-1.782,2.706-3.3,4.224-5.016v-0.132h-17.356v-4.62h24.352v3.63 l-14.321,18.61c-1.32,1.716-2.64,3.365-4.092,4.949v0.133h18.676v4.619h-25.936V591.014z"/><path fill="#FFCD00" d="M185.671,547.523h5.808v19.996h0.132c2.046-3.564,5.742-5.808,10.889-5.808 c7.919,0,13.463,6.6,13.463,16.234c0,11.483-7.259,17.158-14.387,17.158c-4.62,0-8.249-1.781-10.691-6.005h-0.132l-0.33,5.279 h-5.016c0.198-2.178,0.264-5.411,0.264-8.249V547.523z M191.479,581.576c0,0.726,0.066,1.452,0.198,2.111 c1.122,4.026,4.553,6.798,8.711,6.798c6.138,0,9.701-4.949,9.701-12.275c0-6.467-3.3-11.944-9.503-11.944 c-3.96,0-7.655,2.771-8.777,7.127c-0.198,0.727-0.33,1.518-0.33,2.442V581.576z"/><path fill="#FFCD00" d="M245.728,586.724c0,2.771,0.132,5.478,0.462,7.655h-5.214l-0.528-4.025h-0.198 c-1.716,2.508-5.214,4.751-9.767,4.751c-6.468,0-9.768-4.554-9.768-9.173c0-7.722,6.864-11.945,19.205-11.879v-0.66 c0-2.64-0.726-7.457-7.259-7.392c-3.036,0-6.138,0.858-8.381,2.376l-1.32-3.894c2.64-1.649,6.533-2.771,10.559-2.771 c9.833,0,12.209,6.665,12.209,13.066V586.724z M240.052,578.078c-6.335-0.132-13.529,0.99-13.529,7.193 c0,3.828,2.508,5.544,5.412,5.544c4.224,0,6.929-2.64,7.854-5.346c0.198-0.594,0.264-1.254,0.264-1.848V578.078z"/><path fill="#FFCD00" d="M255.035,547.523h5.808v19.996h0.132c2.046-3.564,5.742-5.808,10.889-5.808 c7.919,0,13.463,6.6,13.463,16.234c0,11.483-7.259,17.158-14.387,17.158c-4.62,0-8.249-1.781-10.691-6.005h-0.132l-0.33,5.279 h-5.016c0.198-2.178,0.264-5.411,0.264-8.249V547.523z M260.843,581.576c0,0.726,0.066,1.452,0.198,2.111 c1.122,4.026,4.553,6.798,8.711,6.798c6.138,0,9.701-4.949,9.701-12.275c0-6.467-3.3-11.944-9.503-11.944 c-3.96,0-7.655,2.771-8.777,7.127c-0.198,0.727-0.33,1.518-0.33,2.442V581.576z"/><path fill="#FFCD00" d="M294.172,562.438l6.93,18.875c0.792,2.111,1.584,4.619,2.112,6.533h0.132 c0.594-1.914,1.254-4.355,2.046-6.666l6.335-18.742h6.138l-8.711,22.769c-4.157,10.955-6.996,16.564-10.955,20.062 c-2.904,2.442-5.676,3.432-7.127,3.696l-1.452-4.884c1.452-0.396,3.366-1.32,5.082-2.838c1.583-1.254,3.498-3.498,4.883-6.468 c0.264-0.594,0.462-0.989,0.462-1.386c0-0.33-0.132-0.792-0.462-1.451l-11.747-29.5H294.172z"/><path fill="#FFCD00" d="M323.146,571.083c0-3.366-0.065-6.006-0.264-8.646h5.147l0.33,5.214h0.132 c1.584-2.97,5.279-5.939,10.56-5.939c4.421,0,11.284,2.64,11.284,13.595v19.072h-5.807v-18.412c0-5.147-1.914-9.504-7.392-9.504 c-3.762,0-6.731,2.706-7.787,5.939c-0.265,0.727-0.396,1.782-0.396,2.706v19.271h-5.808V571.083z"/><path fill="#FFCD00" d="M382.279,586.724c0,2.771,0.133,5.478,0.462,7.655h-5.213L377,590.354h-0.198 c-1.716,2.508-5.213,4.751-9.767,4.751c-6.468,0-9.768-4.554-9.768-9.173c0-7.722,6.863-11.945,19.204-11.879v-0.66 c0-2.64-0.726-7.457-7.259-7.392c-3.036,0-6.138,0.858-8.382,2.376l-1.319-3.894c2.64-1.649,6.533-2.771,10.559-2.771 c9.834,0,12.209,6.665,12.209,13.066V586.724z M376.604,578.078c-6.336-0.132-13.529,0.99-13.529,7.193 c0,3.828,2.508,5.544,5.412,5.544c4.224,0,6.929-2.64,7.853-5.346c0.198-0.594,0.265-1.254,0.265-1.848V578.078z"/><path fill="#FFCD00" d="M391.587,571.083c0-3.366-0.132-6.006-0.264-8.646h5.081l0.265,5.147h0.197 c1.782-3.035,4.752-5.873,10.098-5.873c4.289,0,7.589,2.64,8.976,6.401h0.132c0.989-1.848,2.31-3.168,3.629-4.158 c1.914-1.451,3.96-2.243,6.996-2.243c4.289,0,10.559,2.771,10.559,13.858v18.809h-5.675v-18.082c0-6.204-2.311-9.834-6.93-9.834 c-3.366,0-5.874,2.442-6.93,5.214c-0.264,0.858-0.462,1.914-0.462,2.904v19.798h-5.676V575.24c0-5.147-2.243-8.777-6.665-8.777 c-3.563,0-6.27,2.904-7.193,5.808c-0.33,0.858-0.462,1.849-0.462,2.838v19.271h-5.676V571.083z"/><path fill="#FFCD00" d="M449.931,579.398c0.132,7.854,5.082,11.087,10.89,11.087c4.157,0,6.73-0.726,8.843-1.584l1.056,4.092 c-2.046,0.924-5.609,2.046-10.69,2.046c-9.768,0-15.707-6.533-15.707-16.103c0-9.701,5.741-17.291,15.047-17.291 c10.427,0,13.133,9.174,13.133,15.047c0,1.188-0.066,2.112-0.198,2.771L449.931,579.398z M466.892,575.24 c0.065-3.629-1.519-9.437-7.985-9.437c-5.939,0-8.447,5.411-8.909,9.437H466.892z"/><path fill="#FFCD00" d="M478.904,588.506c1.782,1.056,4.817,2.243,7.722,2.243c4.157,0,6.138-2.046,6.138-4.751 c0-2.772-1.65-4.29-5.874-5.874c-5.808-2.111-8.513-5.214-8.513-9.041c0-5.147,4.224-9.371,11.021-9.371 c3.234,0,6.071,0.857,7.787,1.979l-1.386,4.158c-1.254-0.727-3.563-1.849-6.533-1.849c-3.432,0-5.279,1.98-5.279,4.356 c0,2.705,1.848,3.894,6.005,5.478c5.478,2.045,8.382,4.817,8.382,9.635c0,5.676-4.422,9.635-11.879,9.635 c-3.498,0-6.731-0.924-8.976-2.243L478.904,588.506z"/></g><g><g><path fill="#FFCD00" d="M2770,2889.57c-9.014-9.36-9.697-25.723-1.328-35.4c3.672-4.688,16.367-10.015,37.08-15.361 c82.861-22.373,133.955-58.789,162.686-116.592c10.703-22.041,19.053-55.444,13.691-55.444 c-12.021,0-82.188-16.714-112.236-26.719c-221.143-72.495-383.838-243.193-445.962-467.681 c-4.014-14.702-8.013-20.718-20.039-30.4c-34.409-27.393-61.133-68.828-75.845-116.587 c-11.353-36.421-10.688-88.188,1.333-125.269c17.388-52.441,50.781-96.221,95.884-125.605l26.06-17.031l18.706-38.75 c65.811-134.277,173.037-240.85,310.332-307.998c191.084-93.213,400.859-91.875,591.943,4.346 c69.492,34.736,124.941,75.84,180.371,132.939c53.457,55.117,87.861,104.248,120.596,171.387 c18.379,37.08,20.049,39.424,37.422,49.443c26.396,15.029,61.787,49.785,78.838,77.5c32.402,52.124,43.086,113.574,29.053,169.033 c-12.695,51.455-42.412,99.556-77.168,125.938c-12.031,9.355-17.373,16.03-20.039,26.064 c-54.121,193.74-179.385,347.749-353.105,433.926c-90.205,44.771-174.717,66.147-278.916,70.835l-49.102,2.329l5.674,10.005 c9.014,15.361,45.439,47.437,68.135,60.469c11.699,6.348,33.076,16.372,47.773,22.046c32.734,13.027,38.418,17.705,38.418,32.397 c0,15.693-4.688,23.042-16.719,27.388c-8.672,3.022-14.697,2.002-37.412-6.348c-42.412-15.693-70.82-32.402-115.254-68.14 l-10.352-8.677l-11.025,19.375c-13.369,23.389-48.438,60.459-74.15,78.174c-27.061,18.374-69.17,37.744-103.896,47.759 C2794.062,2899.604,2779.355,2899.604,2770,2889.57z M3175.215,2608.979c119.59-22.725,215.137-68.145,302.988-144.316 c94.521-81.826,157.002-188.062,193.076-328.037c2.998-12.363,7.002-17.031,28.057-32.402 c47.09-34.736,69.814-78.838,69.814-135.625c-0.322-53.774-13.359-86.509-49.111-122.261 c-16.025-15.693-31.406-27.393-46.768-35.068c-12.695-6.357-24.395-13.691-25.723-16.367 c-1.338-2.666-11.699-24.395-22.725-48.086c-105.225-222.158-327.373-357.431-573.232-348.427 c-83.516,3.027-151.66,18.047-224.814,49.434c-135.947,58.135-247.852,167.685-309.99,302.627 c-8.335,18.047-16.704,36.426-19.038,41.113c-2.666,5.02-14.697,14.023-30.732,22.725c-60.132,32.061-91.86,85.181-91.86,152.646 c0,60.796,20.366,97.217,81.494,146.987c10.698,8.677,13.359,14.023,20.376,40.083 c41.084,155.996,128.276,278.926,259.546,364.775c73.828,48.433,169.385,82.852,260.576,94.531 C3032.568,2617.656,3143.476,2614.99,3175.215,2608.979z" transform="translate(0.000000,511.000000) scale(0.100000,-0.100000)"/><path fill="#FFCD00" d="M2826.455,2217.46c-54.443-15.361-96.865-61.128-107.217-115.591c-4.355-22.71-2.002-34.409,9.004-43.096 c12.031-9.346,23.047-8.345,34.746,3.003c7.344,7.676,9.668,13.022,9.668,22.715c0,49.434,40.43,84.175,93.203,80.498 c46.777-3.325,72.822-29.727,78.838-80.498c3.682-28.74,19.365-39.082,41.758-27.388c11.689,6.016,15.029,16.362,12.354,37.749 c-6.016,51.455-44.102,98.887-95.879,118.926C2882.246,2222.133,2848.496,2223.476,2826.455,2217.46z" transform="translate(0.000000,511.000000) scale(0.100000,-0.100000)"/><path fill="#FFCD00" d="M3254.052,2217.46c-54.443-15.361-96.885-61.128-107.227-115.591c-4.355-22.71-2.002-34.409,9.033-43.096 c12.012-9.346,23.047-8.345,34.727,3.003c7.363,7.344,9.688,13.022,9.688,22.383c0,33.076,23.73,66.475,54.111,76.841 c34.404,11.362,77.49,1.333,97.871-22.368c11.035-13.369,14.365-21.714,20.049-51.123c5-28.389,13.359-37.08,31.738-34.072 c18.369,3.018,24.395,13.027,22.393,37.085c-4.355,54.126-42.08,102.222-95.869,123.267 C3309.824,2222.133,3276.094,2223.476,3254.052,2217.46z" transform="translate(0.000000,511.000000) scale(0.100000,-0.100000)"/><path fill="#FFCD00" d="M2985.136,1904.79c-59.131-6.67-107.91-25.708-136.641-52.778 c-34.395-32.402-47.422-71.152-44.766-130.615c5.02-114.238,89.873-220.137,199.434-249.199c28.711-7.686,81.504-7.686,110.234,0 c72.5,19.375,134.609,71.816,170.371,143.984c20.039,39.746,26.396,63.467,29.063,103.564 c6.68,109.902-53.438,170.352-184.404,185.386C3094.023,1908.813,3019.209,1908.813,2985.136,1904.79z M3171.191,1843.671 c44.102-12.373,71.504-34.746,80.85-66.807c7.021-23.721,6.338-69.15-1.67-100.225 c-27.715-108.564-132.285-175.029-236.855-150.645c-53.77,12.686-104.883,54.111-129.941,105.557 c-7.686,15.352-16.387,37.08-19.043,48.096c-7.012,27.383-7.012,77.168-0.332,97.871c10.352,30.752,37.422,53.779,75.488,64.15 c30.078,8.35,49.785,9.678,130.283,8.682C3132.773,1849.345,3156.172,1847.988,3171.191,1843.671z" transform="translate(0.000000,511.000000) scale(0.100000,-0.100000)"/><path fill="#FFCD00" d="M3030.908,1790.234c-36.084-11.719-65.811-39.102-78.174-71.826c-9.355-24.736-7.695-61.797,3.34-83.525 c11.367-21.719,34.414-44.775,56.133-55.771c16.709-8.027,23.398-9.697,46.094-9.697c24.063,0,28.73,0.996,47.764,11.348 c68.486,37.09,84.873,116.934,35.752,173.047C3113.75,1785.869,3065.644,1801.562,3030.908,1790.234z M3086.679,1732.089 c39.082-19.375,38.75-82.51-0.684-102.891c-11.68-6.016-43.74-6.016-55.762,0.342c-40.41,20.693-39.414,86.182,1.328,103.887 C3045.927,1739.785,3072.988,1739.101,3086.679,1732.089z" transform="translate(0.000000,511.000000) scale(0.100000,-0.100000)"/></g></g><g><path fill="#FFCD00" fill-rule="evenodd" d="M400.04,143.442c3.223,1.497,5.017,4.177,6.292,7.368 c3.259,8.15,5.725,16.553,8.126,24.978c0.912,3.203,1.751,6.427,2.545,9.661c0.213,0.873,0.627,1.181,1.47,1.337 c5.753,1.06,9.438,4.641,11.486,9.92c0.863,2.223,1.317,4.627,1.766,6.985c0.71,3.749,2.075,7.222,3.973,10.509 c0.709,1.229,1.372,2.486,2.086,3.713c2.585,4.437,3.684,9.249,3.685,14.349c0.001,1.853,0.005,3.706,0.059,5.558 c0.088,3.001,1.447,5.115,4.287,6.317c3.521,1.489,7.021,3.036,10.468,4.693c4.033,1.938,7.717,4.412,10.794,7.707 c3.143,3.364,5.484,7.182,6.101,11.815c0.25,1.877,0.072,3.812,0.057,5.721c-0.014,1.602-0.217,3.216-0.085,4.803 c0.195,2.329,1.153,3.139,3.507,3.145c1.664,0.004,3.329-0.108,4.99-0.233c4.111-0.311,9.126,3.066,10.325,7.761 c0.396,1.554,0.775,3.113,1.097,4.683c0.427,2.098,1.495,3.764,3.201,5.035c0.644,0.479,1.269,0.994,1.956,1.403 c6.384,3.809,10.539,9.46,13.072,16.294c1.671,4.503,3.011,9.135,4.334,13.757c1.414,4.934,2.977,9.795,5.196,14.435 c0.866,1.811,1.552,3.707,2.32,5.565c0,1.979,0,3.955,0,5.933c-1.331,4.357-3.823,8.124-6.192,11.938 c-2.324,3.741-3.341,7.76-3.35,12.14c-0.007,3.33-0.168,6.668-0.452,9.986c-0.327,3.839-1.747,7.339-4.137,10.353 c-2.186,2.757-4.56,5.363-6.852,8.034c-1.246,1.454-2.555,2.86-3.727,4.371c-2.566,3.308-3.928,7.09-4.296,11.26 c-0.282,3.195-0.57,6.394-1.024,9.566c-0.393,2.734-1.58,5.194-3.279,7.371c-1.482,1.899-2.997,3.775-4.563,5.605 c-2.513,2.937-3.892,6.239-3.704,10.173c0.065,1.346-0.19,2.704-0.297,4.058c-0.228,2.921-1.788,4.995-4.314,6.255 c-1.471,0.733-3.097,1.264-4.713,1.575c-3.149,0.607-6.343,0.979-9.513,1.481c-2.906,0.46-5.584,1.505-8.042,3.143 c-3.137,2.087-6.295,4.141-9.467,6.173c-2.771,1.776-5.779,2.715-9.116,2.6c-5.292-0.182-9.336-2.451-12.092-6.986 c-0.312-0.512-0.618-1.025-1.031-1.714c-0.495,0.609-0.911,1.043-1.24,1.535c-3.725,5.581-8.98,7.052-15.222,5.479 c-2.622-0.659-5.252-1.496-7.677-2.668c-6.111-2.955-12.465-5.02-19.162-6.081c-1.335-0.212-2.646-0.611-3.952-0.979 c-6.427-1.807-10.534-5.985-12.371-12.354c-0.751-2.604-1.195-5.296-1.882-7.921c-0.449-1.725-0.951-3.457-1.665-5.084 c-0.778-1.771-2.259-2.772-4.272-2.69c-3.115,0.128-4.942-1.499-5.997-4.25c-0.039-0.103-0.15-0.178-0.175-0.206 c-2.194,0.716-4.339,1.475-6.522,2.103c-0.997,0.289-2.063,0.37-3.105,0.46c-2.354,0.204-4.193-0.845-5.692-2.545 c-0.998-1.134-0.992-1.56-0.081-2.745c0.754-0.978,1.564-1.912,2.364-2.854c2.292-2.701,4.177-5.662,5.688-8.865 c0.207-0.436,0.365-0.892,0.354-1.562c-0.493,0.356-1.006,0.691-1.479,1.074c-3.935,3.192-7.846,6.412-11.794,9.587 c-2.258,1.813-4.131,1.577-5.753-0.823c-1.349-1.991-2.554-4.083-3.743-6.176c-3.478-6.123-6.914-12.268-10.367-18.403 c-0.272-0.484-0.573-0.955-0.821-1.451c-1.309-2.625-3.452-4.114-6.286-4.701c-3.324-0.688-6.633-1.451-9.969-2.078 c-7.731-1.45-15.517-2.179-23.402-1.815c-7.128,0.326-14.104,1.573-21.048,3.083c-7.78,1.69-15.543,3.444-23.129,5.905 c-8.051,2.611-15.306,6.532-21.329,12.588c-1.435,1.442-2.992,2.775-4.585,4.043c-4.273,3.396-8.987,3.791-13.944,1.765 c-2.111-0.863-4.157-1.891-6.21-2.889c-3.376-1.64-6.865-1.613-10.241-0.296c-2.452,0.956-4.772,2.31-7.033,3.68 c-3.272,1.984-6.419,4.176-9.656,6.222c-3.307,2.087-6.802,3.813-10.653,4.619c-6.955,1.453-13.746,0.839-20.361-1.804 c-6.772-2.702-12.348-6.942-16.66-12.822c-0.655-0.892-1.262-1.839-1.745-2.832c-0.583-1.198-0.308-2.178,0.92-2.566 c5.499-1.74,6.59-6.201,6.937-11.081c0.312-4.403-0.361-8.752-1.093-13.077c-2.438-14.405-6.214-28.45-11.551-42.059 c-1.262-3.216-2.715-6.358-4.052-9.545c-0.43-1.022-0.808-2.071-1.148-3.126c-0.808-2.502-0.777-4.972,0.339-7.399 c0.619-1.346,1.169-2.722,1.766-4.079c0.912-2.07,0.978-4.195,0.354-6.336c-0.345-1.182-0.761-2.352-1.25-3.481 c-2.445-5.641-4.171-11.476-4.903-17.593c-0.036-0.298-0.189-0.583-0.288-0.872c0-1.236,0-2.472,0-3.708 c0.369-1.745,0.736-3.489,1.104-5.233c1.61-7.648,5.88-13.348,12.627-17.229c3.657-2.103,7.562-3.64,11.561-4.938 c15.613-5.068,31.233-10.113,46.849-15.171c1.115-0.362,2.228-0.731,3.324-1.145c6.97-2.631,11.388-7.655,13.536-14.695 c0.88-2.889,1.47-5.865,2.237-8.79c0.612-2.337,1.427-4.6,2.747-6.649c1.266-1.966,2.929-3.505,5.018-4.552 c1.778-0.893,3.129-0.721,4.562,0.68c1.047,1.024,1.968,2.178,3.209,3.572c0.408-2.533,0.739-4.752,1.133-6.962 c0.161-0.905,0.393-1.81,0.709-2.671c0.468-1.274,1.405-2.02,2.81-2.016c0.924,0.003,1.849,0.057,2.771,0.116 c1.985,0.128,2.917-0.313,3.628-2.149c0.553-1.426,0.959-2.941,1.194-4.453c0.663-4.283,2.673-7.781,5.861-10.65 c0.688-0.62,1.375-1.252,2.123-1.792c4.257-3.074,8.554-6.093,12.795-9.188c3.19-2.328,6.373-2.188,9.396,0.105 c2.104,1.597,4.017,3.46,5.915,5.308c1.37,1.332,2.502,2.908,3.875,4.237c1.098,1.065,2.332,2.026,3.625,2.842 c1.281,0.806,2.747,1.019,4.281,0.662c2.222-0.517,3.108-1.697,2.878-3.994c-0.074-0.737-0.188-1.469-0.281-2.204 c-0.336-2.681,0.237-5.168,1.676-7.438c1.023-1.615,1.988-3.299,3.221-4.747c3.124-3.666,6.345-7.251,9.604-10.798 c2.111-2.299,4.78-3.462,7.95-3.279c1.538,0.089,3.073,0.251,4.611,0.355c0.983,0.066,1.981,0.201,2.954,0.102 c1.949-0.198,3.16-1.611,2.949-3.56c-0.124-1.141-0.59-2.25-0.959-3.356c-0.311-0.936-0.791-1.821-1.035-2.77 c-0.334-1.299,0.125-1.828,1.48-1.879c2.693-0.104,5.32,0.302,7.768,1.427c2.465,1.132,4.871,2.398,7.271,3.664 c2.02,1.065,3.975,2.255,5.997,3.314c4.433,2.322,9.055,2.7,13.827,1.207c1.178-0.369,2.352-0.751,3.523-1.14 c7.594-2.519,12.258,3.854,12.226,8.916c-0.013,1.884-0.296,3.689-1.028,5.419c-0.673,1.592-1.38,3.169-2.063,4.757 c-0.766,1.782-0.891,3.525-0.022,5.362c0.836,1.766,0.683,2.075-0.749,3.353c-0.922,0.822-1.885,1.605-2.75,2.482 c-0.691,0.699-1.35,1.46-1.874,2.286c-1.268,2.001-1.106,3.614,0.488,5.388c0.741,0.826,1.529,1.619,2.362,2.353 c3.524,3.104,7.072,6.181,10.616,9.263c1.982,1.724,4.194,3.04,6.751,3.73c4.1,1.109,7.584,3.215,10.475,6.341 c1.004,1.086,2.115,2.08,3.247,3.037c2.334,1.975,4.893,2.151,7.59,0.78c2.624-1.334,4.565-3.343,5.888-5.961 c1.327-2.63,2.045-5.442,2.228-8.358c0.33-5.239,0.537-10.485,0.81-15.729c0.646-12.461,2.441-24.703,7.326-36.296 c1.266-3.004,2.858-5.876,4.387-8.763c0.825-1.56,2.088-2.74,3.761-3.417C398.804,143.442,399.422,143.442,400.04,143.442z M359.057,438.619c0.09,0.168,0.105,0.236,0.147,0.274c0.225,0.213,0.441,0.437,0.685,0.625c4.027,3.139,6.375,7.309,7.5,12.226 c0.537,2.345,1.015,4.706,1.584,7.044c1.293,5.296,2.97,6.896,8.389,7.646c7.096,0.983,13.876,2.896,20.244,6.229 c1.527,0.8,3.148,1.43,4.758,2.055c0.795,0.311,1.654,0.477,2.496,0.643c4.71,0.925,8.336-0.525,10.835-4.765 c0.836-1.419,2.037-2.628,3.128-3.884c0.726-0.837,1.707-1.138,2.824-1.143c2.85-0.011,5.559,1.804,6.552,4.574 c0.456,1.273,0.722,2.615,1.06,3.928c0.521,2.014,1.096,2.509,3.188,2.708c2.52,0.242,4.961-0.097,7.189-1.304 c1.95-1.057,3.835-2.243,5.688-3.465c2.112-1.394,4.135-2.927,6.24-4.331c2.236-1.493,4.683-2.471,7.375-2.813 c2.449-0.309,4.906-0.592,7.331-1.045c1.868-0.349,3.749-0.79,5.518-1.468c1.989-0.762,3.117-2.366,3.264-4.555 c0.095-1.416,0.248-2.835,0.226-4.252c-0.052-3.015,0.809-5.732,2.493-8.193c1.082-1.579,2.249-3.099,3.395-4.633 c0.962-1.286,1.99-2.525,2.913-3.838c1.841-2.62,3.103-5.462,3.221-8.736c0.059-1.602,0.304-3.199,0.337-4.801 c0.136-6.52,2.313-12.186,6.85-16.923c1.582-1.65,3.113-3.352,4.602-5.086c1.649-1.919,3.298-3.847,4.814-5.87 c1.897-2.536,2.845-5.46,3.003-8.622c0.154-3.085,0.358-6.17,0.382-9.256c0.039-4.617,1.11-8.918,3.484-12.888 c1.015-1.696,2.051-3.381,2.993-5.117c0.881-1.624,1.737-3.273,2.442-4.978c0.958-2.31,1.011-4.688,0.053-7.041 c-0.606-1.484-1.171-2.99-1.848-4.442c-1.885-4.04-3.393-8.214-4.612-12.496c-1.102-3.858-2.191-7.719-3.364-11.555 c-1.881-6.148-5.204-11.275-10.593-14.984c-1.823-1.255-3.486-2.762-5.13-4.257c-1.873-1.705-3.088-3.837-3.579-6.35 c-0.214-1.088-0.427-2.178-0.62-3.271c-0.383-2.154-0.828-2.534-3.079-2.543c-1.915-0.009-3.83,0.015-5.745-0.014 c-0.673-0.011-1.362-0.065-2.015-0.222c-4.572-1.102-8.112-5.175-8.499-9.885c-0.216-2.645-0.174-5.311-0.41-7.953 c-0.187-2.076-0.396-4.199-0.997-6.178c-1.013-3.341-3.393-5.761-6.354-7.449c-2.94-1.678-6.063-3.034-9.098-4.545 c-2.814-1.4-5.739-2.625-8.4-4.275c-4.024-2.495-6.153-6.325-6.613-11.031c-0.192-1.963-0.33-3.945-0.302-5.917 c0.07-5.078-1.136-9.767-3.817-14.099c-2.955-4.773-4.921-9.932-6-15.454c-0.376-1.922-0.997-3.835-1.794-5.625 c-1.087-2.445-2.443-2.857-4.945-1.883c-2.997,1.168-5.273,0.057-6.139-3.023c-0.402-1.426-0.781-2.859-1.125-4.3 c-2.602-10.877-5.848-21.562-9.591-32.098c-0.253-0.713-0.589-1.397-0.929-2.189c-0.326,0.296-0.495,0.396-0.585,0.542 c-0.386,0.632-0.776,1.265-1.116,1.921c-2.534,4.898-4.496,10.021-5.992,15.325c-2.9,10.294-4.015,20.82-4.171,31.484 c-0.07,4.626-0.084,9.277-1.021,13.838c-1.21,5.891-4.226,10.49-9.799,13.146c-2.874,1.37-5.843,1.446-8.842,0.484 c-1.905-0.611-3.605-1.62-5.083-2.971c-1.643-1.5-3.288-2.999-4.867-4.564c-1.481-1.468-3.167-2.538-5.167-3.137 c-1.063-0.318-2.095-0.737-3.15-1.083c-2.201-0.718-4.229-1.774-5.949-3.313c-5.755-5.15-11.56-10.25-17.169-15.554 c-3.772-3.566-3.84-8.131-0.527-12.117c0.947-1.138,2.002-2.189,3.045-3.242c0.557-0.561,0.746-1.064,0.646-1.937 c-0.163-1.441-0.131-2.966,0.17-4.38c0.37-1.738,1.125-3.391,1.67-5.094c0.545-1.702,1.07-3.41,1.531-5.136 c0.125-0.468-0.017-1.008-0.045-1.731c-1.449,0.442-2.625,0.778-3.787,1.158c-6.48,2.12-12.795,1.631-18.902-1.319 c-2.219-1.073-4.322-2.385-6.492-3.563c-2.168-1.178-4.339-2.353-6.541-3.464c-0.614-0.311-1.342-0.397-2.07-0.602 c0.193,1.957,0.499,3.661,0.502,5.366c0.005,3.189-2.33,5.611-5.516,5.877c-0.733,0.062-1.482,0.01-2.219-0.058 c-1.6-0.147-3.196-0.323-4.791-0.515c-2.625-0.316-4.889,0.417-6.75,2.308c-0.648,0.659-1.277,1.343-1.873,2.052 c-2.264,2.697-4.525,5.398-6.758,8.122c-0.979,1.193-1.906,2.431-2.815,3.678c-1.513,2.076-2.221,4.39-1.95,6.973 c0.102,0.982,0.191,1.965,0.281,2.949c0.307,3.395-2.021,6.087-5.428,6.479c-4.944,0.571-9.146-1.042-12.75-4.28 c-2.249-2.021-4.31-4.251-6.451-6.39c-0.875-0.874-1.726-1.771-2.615-2.627c-1.181-1.137-2.513-1.218-3.909-0.436 c-0.645,0.361-1.271,0.763-1.876,1.188c-2.831,1.988-5.625,4.03-8.482,5.978c-5.161,3.519-8.777,8.043-9.986,14.343 c-0.32,1.663-1.061,3.304-1.895,4.796c-1.287,2.301-3.329,3.411-6.049,2.977c-0.658-0.104-1.32-0.18-2.143-0.292 c-0.229,0.828-0.51,1.573-0.634,2.344c-0.391,2.437-0.709,4.886-1.083,7.325c-0.233,1.525-0.474,3.052-0.79,4.561 c-0.339,1.619-0.947,2-2.502,1.345c-0.988-0.417-1.958-1.071-2.693-1.849c-1.183-1.251-2.158-2.698-3.238-4.048 c-0.488-0.61-1.02-1.185-1.616-1.873c-0.542,0.511-0.966,0.861-1.333,1.264c-1.758,1.925-2.684,4.277-3.348,6.739 c-0.884,3.276-1.607,6.6-2.58,9.849c-2.333,7.79-7.353,13.141-14.958,16.039c-1.557,0.593-3.141,1.116-4.725,1.633 c-16.25,5.301-32.506,10.585-48.754,15.896c-3.474,1.136-6.779,2.652-9.835,4.685c-4.916,3.269-8.137,7.763-9.298,13.538 c-1.254,6.23-0.861,12.407,1.427,18.4c1.167,3.056,2.424,6.083,3.469,9.181c1.438,4.261,1.527,8.486-0.945,12.486 c-0.227,0.367-0.385,0.775-0.586,1.156c-1.203,2.284-1.243,4.555-0.169,6.931c1.348,2.98,2.598,6.007,3.824,9.04 c5.989,14.828,10.035,30.209,12.944,45.904c0.914,4.926,1.495,9.892,0.829,14.918c-0.581,4.387-2.093,8.253-5.933,10.857 c-0.294,0.2-0.532,0.482-0.89,0.814c0.389,0.475,0.695,0.93,1.078,1.308c7.182,7.092,15.803,9.568,25.654,7.801 c3.806-0.684,7.282-2.337,10.547-4.382c2.878-1.803,5.669-3.746,8.557-5.533c2.255-1.395,4.533-2.782,6.917-3.931 c4.61-2.223,9.372-2.524,14.171-0.536c2.28,0.945,4.545,1.928,6.8,2.932c3.732,1.659,7.231,1.355,10.401-1.28 c1.898-1.578,3.735-3.236,5.534-4.928c2.439-2.293,5.001-4.406,7.875-6.145c3.93-2.376,8.102-4.208,12.459-5.628 c9.109-2.968,18.446-5.042,27.802-7.034c6.592-1.403,13.24-2.435,19.996-2.543c10.186-0.163,20.17,1.327,30.096,3.524 c7.936,1.756,14.051,5.683,17.859,13.074c2.744,5.322,5.831,10.466,8.771,15.686c0.447,0.793,0.928,1.568,1.454,2.456 c0.652-0.473,1.159-0.806,1.626-1.188c3.297-2.703,6.591-5.41,9.873-8.131c3.955-3.278,7.369-6.94,8.826-12.069 c0.374-1.315,1.205-1.596,2.444-1.003c1.477,0.708,2.677,1.777,3.515,3.196c0.206,0.348,0.315,0.817,0.294,1.225 c-0.141,2.835-0.215,5.68-0.528,8.497c-0.442,3.959-1.761,7.687-3.392,11.309c-0.296,0.655-0.791,1.299-0.648,2.356 c0.627-0.589,1.154-0.949,1.501-1.438c1.282-1.809,2.535-3.642,3.741-5.502c1.066-1.647,1.835-1.872,3.488-0.816 c1.629,1.041,2.697,2.538,3.27,4.359c0.691,2.205,1.002,4.461,0.526,6.76C359.765,435.686,359.405,437.119,359.057,438.619z" clip-rule="evenodd"/><path fill="#FFCD00" fill-rule="evenodd" d="M419.063,503.349c-0.048-3.264,2.513-6.162,5.073-6.698 c1.751-0.368,3.33,0.092,4.771,0.98c1.256,0.772,2.393,1.74,3.584,2.619c1.091,0.807,2.148,1.664,3.286,2.399 c1.678,1.083,3.492,1.244,5.286,0.329c1.292-0.658,2.521-0.599,3.926-0.375c2.773,0.441,5.538-0.043,8.237-0.771 c1.604-0.433,3.173-1.012,4.783-1.429c2.823-0.731,5.484,0.509,6.409,3.252c0.538,1.597,0.843,3.406,0.696,5.072 c-0.328,3.74-0.987,7.454-1.543,11.174c-0.326,2.173-1.173,4.162-2.417,5.958c-1.803,2.6-3.249,5.379-4.486,8.286 c-0.528,1.243-1.169,2.46-1.906,3.592c-2.455,3.77-6.346,5.47-10.714,4.432c-2.864-0.679-5.733-1.547-8.414-2.744 c-4.687-2.096-7.604-5.779-8.557-10.902c-0.475-2.545-0.838-5.117-1.432-7.634c-0.438-1.847-1.047-3.676-1.795-5.419 c-1.07-2.492-2.44-4.856-3.482-7.358C419.74,506.604,419.486,504.941,419.063,503.349z M458.729,508.039 c-3.998,2.253-8.001,1.778-11.922,1.92c-0.432,0.016-0.866-0.047-1.295-0.016c-0.544,0.043-1.105,0.075-1.624,0.23 c-3.854,1.146-7.451,0.605-10.75-1.675c-1.264-0.875-2.413-1.917-3.634-2.859c-0.633-0.489-1.262-1.013-1.974-1.357 c-0.438-0.211-1.247-0.345-1.491-0.104c-0.366,0.357-0.599,1.119-0.495,1.628c0.169,0.82,0.618,1.597,1.021,2.354 c1.946,3.65,3.867,7.323,4.753,11.4c0.549,2.525,0.9,5.096,1.305,7.649c0.33,2.085,0.965,4.056,2.933,5.098 c2.959,1.567,6.117,2.612,9.508,2.745c2.028,0.082,3.614-0.791,4.643-2.508c0.726-1.21,1.339-2.501,1.878-3.808 c1.042-2.521,2.344-4.88,3.919-7.111c0.736-1.046,1.413-2.205,1.794-3.415C458.284,515.077,458.354,511.796,458.729,508.039z" clip-rule="evenodd"/></g></svg>